<svg width="107" height="139" viewBox="0 0 107 139" fill="none" xmlns="http://www.w3.org/2000/svg">
<path d="M76.164 53.5002C76.164 63.1978 70.0621 71.4789 61.5087 74.7477V53.5002H61.3997C61.3997 49.1417 57.8585 45.6005 53.5 45.6005C49.1416 45.6005 45.6003 49.1417 45.6003 53.5002H45.4914V115.009C45.4914 127.867 34.9221 138.381 22.0647 138C10.1879 137.619 0.599312 128.085 0.108986 116.208C0.108986 115.935 0.108986 115.608 0.108986 115.336C0.108986 105.638 6.21082 97.3573 14.8188 94.0885V116.208H14.8732C15.3091 120.185 18.6869 123.29 22.8274 123.29C26.9679 123.29 30.3457 120.185 30.7816 116.208H30.8361V53.8271C30.8361 40.8062 41.6232 30.2369 54.5896 30.8362C66.5754 31.381 76.164 41.351 76.164 53.5002Z" fill="white"/>
<path d="M104.385 36.5569C114.845 70.444 92.5081 101.771 61.5087 106.401C61.5087 98.6651 65.6492 91.4736 72.4048 87.7144C87.6049 79.2154 96.4852 60.7464 90.22 41.1333C87.0056 31.0544 76.0005 20.2127 65.8671 17.1073C39.3895 8.93514 15.0911 28.3303 14.8187 53.5005V68.3193C14.8187 73.386 11.7678 77.9624 7.13697 80.0326C7.13697 80.0326 7.08249 80.0326 7.08249 80.0871C4.57638 81.2312 2.23371 82.5933 0 84.2277V53.555C0 18.3058 33.9959 -8.93458 70.9338 2.7788C86.9511 7.84552 99.4272 20.4851 104.385 36.5569Z" fill="white"/>
</svg>
